<svg xmlns="http://www.w3.org/2000/svg" viewBox="0 0 331836 333334" shape-rendering="geometricPrecision" text-rendering="geometricPrecision" image-rendering="optimizeQuality" fill-rule="evenodd" clip-rule="evenodd"><path d="M160632 67620l2355 2355 64204-64204c3836-3837 8910-5760 14000-5770h68c5082 17 10145 1940 13975 5770l70809 70808c3862 3862 5793 8946 5793 14022 0 272-14 543-40 808-197 4823-2115 9576-5753 13214l-64204 64204 2524 2524c2708 2708 4063 6270 4063 9826 0 305-18 607-50 904-204 3257-1541 6452-4012 8923l-93082 93082c-8405 8405-19477 12608-30543 12608s-22138-4203-30543-12608l-5948-5948-23874 23874c-4530 4530-10493 6795-16450 6794-5956 1-11920-2265-16450-6794l-1196-1196-30839 30839c-2811 2811-8170 2011-11969-1789-3799-3799-4600-9158-1789-11969l30839-30839-1669-1669c-4432-4432-6643-10269-6643-16097 0-5834 2218-11675 6643-16100l24226-24226-7178-7178c-8405-8405-12608-19477-12608-30543s4203-22138 12608-30543l93082-93082c2693-2693 6247-4039 9804-4040h22v-23c3556 0 7119 1355 9826 4063zM71217 222063c432 290 844 626 1226 1008l37698 37698c382 382 718 794 1008 1226l10568 10568c5224 5224 12120 7837 19020 7837s13796-2613 19020-7837l91386-91386L150804 80839l-91386 91386c-5224 5224-7837 12120-7837 19020s2613 13796 7837 19020l11797 11797zm200076-121460c3437 3437 3437 9060 2 12496l-11571 11571c-3438 3438-9061 3438-12498 0-3436-3436-3436-9059 2-12497l11571-11571c3436-3436 9059-3435 12495 0zm-37374-37374c3437 3437 3438 9061 2 12496l-11571 11571c-3438 3438-9061 3437-12498 0-3436-3436-3436-9059 2-12497l11571-11571c3436-3436 9059-3435 12495 0zm80602 24874l-70808-70809c-696-696-1594-1044-2477-1044v-1l-45 1c-883 0-1781 348-2477 1044l-64034 64034 75807 75808 64034-64034c612-612 956-1382 1029-2159-5-113-7-226-7-340 0-911-341-1819-1022-2499z" fill-rule="nonzero"/></svg>